name D:\school\WTK\thesis\model\3dpredictsim\Results\Batchsim_tmt_linear_v2\Pog_s1_tmt_aCst_d02_k2000_ig24_act.mot
datacolumns 128
datarows 4
range 0.60768621 0.64414738
endheader
time	pelvis_tilt	pelvis_list	pelvis_rotation	pelvis_tx	pelvis_ty	pelvis_tz	hip_flexion_l	hip_adduction_l	hip_rotation_l	hip_flexion_r	hip_adduction_r	hip_rotation_r	knee_angle_l	knee_angle_r	ankle_angle_l	ankle_angle_r	subtalar_angle_l	subtalar_angle_r	tmt_angle_l	tmt_angle_r	mtp_angle_l	mtp_angle_r	lumbar_extension	lumbar_bending	lumbar_rotation	arm_flex_l	arm_add_l	arm_rot_l	arm_flex_r	arm_add_r	arm_rot_r	elbow_flex_l	elbow_flex_r	pro_sup_l	pro_sup_r	glut_med1_l/activation	glut_med2_l/activation	glut_med3_l/activation	glut_min1_l/activation	glut_min2_l/activation	glut_min3_l/activation	semimem_l/activation	semiten_l/activation	bifemlh_l/activation	bifemsh_l/activation	sar_l/activation	add_long_l/activation	add_brev_l/activation	add_mag1_l/activation	add_mag2_l/activation	add_mag3_l/activation	tfl_l/activation	pect_l/activation	grac_l/activation	glut_max1_l/activation	glut_max2_l/activation	glut_max3_l/activation	iliacus_l/activation	psoas_l/activation	quad_fem_l/activation	gem_l/activation	peri_l/activation	rect_fem_l/activation	vas_med_l/activation	vas_int_l/activation	vas_lat_l/activation	med_gas_l/activation	lat_gas_l/activation	soleus_l/activation	tib_post_l/activation	flex_dig_l/activation	flex_hal_l/activation	tib_ant_l/activation	per_brev_l/activation	per_long_l/activation	per_tert_l/activation	ext_dig_l/activation	ext_hal_l/activation	ercspn_l/activation	intobl_l/activation	extobl_l/activation	glut_med1_r/activation	glut_med2_r/activation	glut_med3_r/activation	glut_min1_r/activation	glut_min2_r/activation	glut_min3_r/activation	semimem_r/activation	semiten_r/activation	bifemlh_r/activation	bifemsh_r/activation	sar_r/activation	add_long_r/activation	add_brev_r/activation	add_mag1_r/activation	add_mag2_r/activation	add_mag3_r/activation	tfl_r/activation	pect_r/activation	grac_r/activation	glut_max1_r/activation	glut_max2_r/activation	glut_max3_r/activation	iliacus_r/activation	psoas_r/activation	quad_fem_r/activation	gem_r/activation	peri_r/activation	rect_fem_r/activation	vas_med_r/activation	vas_int_r/activation	vas_lat_r/activation	med_gas_r/activation	lat_gas_r/activation	soleus_r/activation	tib_post_r/activation	flex_dig_r/activation	flex_hal_r/activation	tib_ant_r/activation	per_brev_r/activation	per_long_r/activation	per_tert_r/activation	ext_dig_r/activation	ext_hal_r/activation	ercspn_r/activation	intobl_r/activation	extobl_r/activation	
          0.60768621	         -1.79226972	         -2.09863593	         -7.54520500	          0.75960776	          0.86867380	          0.00336293	         28.28464895	         -2.65560673	         -0.79173677	        -14.60835172	          1.58599311	          5.59976472	        -10.00132116	        -18.11913517	          8.14263563	        -14.22764548	          5.63493092	          8.34429759	          0.01340897	          0.49297881	         -0.06964690	         35.11158166	          1.28657435	          5.09191924	          2.54340530	        -15.77132866	        -13.45060124	         12.17845003	          1.81295529	        -13.51294588	         10.10719207	         21.08587249	         34.09034832	         86.51662706	         86.51662706	          0.07383149	          0.06012837	          0.07020203	          0.05000062	          0.05000303	          0.05185349	          0.06845192	          0.06012845	          0.06871496	          0.05008482	          0.05965730	          0.05000014	          0.05000022	          0.05939758	          0.14632375	          0.12396218	          0.06012839	          0.05000061	          0.05000189	          0.06012843	          0.06710142	          0.12792201	          0.07303409	          0.07230839	          0.08624529	          0.06012872	          0.07422417	          0.05000018	          0.05000062	          0.06030217	          0.05000048	          0.06012814	          0.06012817	          0.06419840	          0.06012811	          0.07232903	          0.07230855	          0.44418033	          0.19619169	          0.17677242	          0.17259249	          0.48233929	          0.28807238	          0.05000001	          0.14835935	          0.12597249	          0.25115398	          0.06440905	          0.05000008	          0.22484829	          0.13305390	          0.06324298	          0.05208397	          0.05000018	          0.05000023	          0.05000015	          0.08026028	          0.17665134	          0.09582723	          0.05001248	          0.05000324	          0.05000250	          0.15123517	          0.05137913	          0.05000056	          0.05000121	          0.05000098	          0.05000116	          0.24639385	          0.44699623	          0.05000018	          0.05000062	          0.07697452	          0.18280810	          0.09616687	          0.09947377	          0.08696980	          0.05000003	          0.06862020	          0.05000001	          0.09516882	          0.08235207	          0.09808301	          0.11983352	          0.27721996	          0.20619155	          0.40064111	          0.43972656	          0.05000025	          0.05000001	          0.06580424	          0.06259067	
          0.61983993	         -1.77143384	         -2.31659651	         -7.58639472	          0.77996950	          0.86761469	          0.00309456	         27.70301000	         -2.66793283	         -0.62537931	        -14.67169718	          1.50339522	          5.40386562	         -9.99387579	        -19.73544278	          7.61447981	        -16.80958970	          5.32362206	          9.05882897	          0.01144264	          0.37396301	         -0.05600776	         35.37867469	          1.56759578	          4.97804146	          2.62060158	        -17.55979722	        -13.45292950	         12.24192316	          1.46530109	        -13.57171965	         10.49345371	         21.36661572	         35.06277258	         86.51662706	         86.51662706	          0.12855498	          0.05000036	          0.25464670	          0.06012886	          0.05000127	          0.05000041	          0.06012750	          0.05000039	          0.06012795	          0.05000013	          0.05000045	          0.08695448	          0.10456914	          0.15958017	          0.20398680	          0.16335301	          0.05000034	          0.07231270	          0.06012726	          0.05000038	          0.05579878	          0.18594204	          0.06073216	          0.06012867	          0.07171804	          0.05000117	          0.21016892	          0.07466665	          0.26090798	          0.26160186	          0.22560496	          0.05000004	          0.05000007	          0.05338469	          0.05000002	          0.06014592	          0.06012886	          0.64413684	          0.29905245	          0.16038687	          0.54293144	          0.62535151	          0.50450308	          0.05000003	          0.12336939	          0.10475342	          0.20884910	          0.05356005	          0.06008113	          0.18697441	          0.11064207	          0.05259069	          0.07737932	          0.05000021	          0.05000018	          0.05000025	          0.06674194	          0.24352271	          0.30551265	          0.14099206	          0.05000352	          0.05000030	          0.12576084	          0.13967751	          0.08695063	          0.05000305	          0.05000157	          0.05000163	          0.20489080	          0.39222714	          0.10852053	          0.06242183	          0.06400908	          0.15201553	          0.07996835	          0.08271823	          0.07232044	          0.05000010	          0.05706172	          0.05000101	          0.07913839	          0.06848062	          0.08156174	          0.23455523	          0.29975149	          0.19936845	          0.48657144	          0.60314479	          0.19664740	          0.05043145	          0.06846034	          0.07081341	
          0.63199365	         -1.74363340	         -2.51329479	         -7.59258847	          0.80035863	          0.86590973	          0.00282978	         27.03221909	         -2.64176396	         -0.43311680	        -14.57944086	          1.43800057	          5.22365733	        -10.55586383	        -21.69637337	          6.76114523	        -18.68029514	          5.01569855	          9.75321322	          0.00592496	          0.27758832	         -0.01319026	         33.99734499	          1.83791063	          4.81989093	          2.68263466	        -19.28782275	        -13.47851189	         12.40660492	          1.10144744	        -13.64925150	         10.86921716	         21.55273214	         36.01976537	         86.51662706	         86.51662706	          0.20379021	          0.17578721	          0.24480768	          0.05000106	          0.05000056	          0.05398810	          0.05000001	          0.05000005	          0.05000003	          0.05000003	          0.05000015	          0.07230773	          0.08695533	          0.13270033	          0.16962778	          0.14607943	          0.05073151	          0.06013242	          0.05000033	          0.13850346	          0.12899029	          0.16148929	          0.05050235	          0.05000059	          0.13025743	          0.05000064	          0.17476779	          0.06773411	          0.29982356	          0.32409735	          0.25077275	          0.05000001	          0.05000004	          0.05000000	          0.05000014	          0.05001526	          0.05000108	          0.60101248	          0.31693639	          0.17993880	          0.50627905	          0.55755593	          0.41952357	          0.05000001	          0.10258880	          0.08710854	          0.17367014	          0.06012834	          0.06017285	          0.15548009	          0.09200533	          0.06012855	          0.11174086	          0.05000056	          0.06012818	          0.05000012	          0.05550006	          0.24144840	          0.32539495	          0.19701348	          0.06557363	          0.08256106	          0.10457745	          0.11615018	          0.07230475	          0.06012838	          0.06012854	          0.06012895	          0.17037859	          0.32615966	          0.09024117	          0.07220146	          0.06012832	          0.12640972	          0.07939230	          0.08695380	          0.07947547	          0.05000006	          0.05000015	          0.05000003	          0.06580816	          0.05694584	          0.06782335	          0.32409741	          0.31422345	          0.20182755	          0.51796757	          0.70356906	          0.16352376	          0.07043829	          0.06045568	          0.05888549	
          0.64414738	         -1.71020282	         -2.68862220	         -7.56077422	          0.82062207	          0.86375952	          0.00256964	         26.25941466	         -2.59235308	         -0.19916842	        -14.33834576	          1.38452233	          5.06656380	        -11.52551256	        -23.98747431	          6.05600303	        -19.81802828	          4.69854981	         10.41659942	         -0.00523755	          0.20580056	         -0.17385104	         30.92782572	          2.09249532	          4.62176242	          2.73144294	        -20.89943036	        -13.51875504	         12.69223850	          0.75185650	        -13.73502022	         11.24655443	         21.58330944	         36.90937577	         86.51662706	         86.51662706	          0.28470517	          0.32984570	          0.42275940	          0.05000164	          0.17624539	          0.28271204	          0.06012883	          0.07241480	          0.06467342	          0.07230750	          0.05000846	          0.06012809	          0.07230841	          0.11034807	          0.14105547	          0.15613678	          0.05000015	          0.05000388	          0.05000116	          0.23594499	          0.19447694	          0.17965065	          0.05000009	          0.05000009	          0.10831747	          0.05265635	          0.31410739	          0.05632484	          0.24932069	          0.26950576	          0.20853209	          0.05000002	          0.05000004	          0.05000000	          0.05000000	          0.05000009	          0.05000008	          0.70576782	          0.29301115	          0.14962962	          0.72726336	          0.70064280	          0.54091348	          0.05000001	          0.08530853	          0.07243580	          0.15123230	          0.05000023	          0.05003722	          0.12929090	          0.07650781	          0.05000044	          0.16139560	          0.05000010	          0.05000031	          0.05000008	          0.05000129	          0.20478188	          0.30757360	          0.16382840	          0.05452947	          0.06865464	          0.08696224	          0.09658602	          0.06012569	          0.05000084	          0.05000069	          0.05000092	          0.14167968	          0.31067731	          0.07504077	          0.06003975	          0.05000021	          0.10511700	          0.07230700	          0.07230737	          0.06608864	          0.05000053	          0.05000050	          0.05000173	          0.05472331	          0.05000052	          0.05639911	          0.32067434	          0.26516529	          0.17239081	          0.46532397	          0.81117628	          0.39328950	          0.09710442	          0.05027240	          0.05444650	
